<svg width="80" height="80" viewBox="0 0 80 80" fill="none" xmlns="http://www.w3.org/2000/svg">
<g clip-path="url(#clip0_3507_25)">
<path d="M40 20.3219C46.4125 20.3219 47.1719 20.35 49.6938 20.4625C52.0375 20.5656 53.3031 20.9594 54.1469 21.2875C55.2625 21.7188 56.0688 22.2438 56.9031 23.0781C57.7469 23.9219 58.2625 24.7188 58.6938 25.8344C59.0219 26.6781 59.4156 27.9531 59.5188 30.2875C59.6313 32.8187 59.6594 33.5781 59.6594 39.9813C59.6594 46.3938 59.6313 47.1531 59.5188 49.675C59.4156 52.0188 59.0219 53.2844 58.6938 54.1281C58.2625 55.2438 57.7375 56.05 56.9031 56.8844C56.0594 57.7281 55.2625 58.2438 54.1469 58.675C53.3031 59.0031 52.0281 59.3969 49.6938 59.5C47.1625 59.6125 46.4031 59.6406 40 59.6406C33.5875 59.6406 32.8281 59.6125 30.3063 59.5C27.9625 59.3969 26.6969 59.0031 25.8531 58.675C24.7375 58.2438 23.9313 57.7188 23.0969 56.8844C22.2531 56.0406 21.7375 55.2438 21.3063 54.1281C20.9781 53.2844 20.5844 52.0094 20.4813 49.675C20.3688 47.1438 20.3406 46.3844 20.3406 39.9813C20.3406 33.5688 20.3688 32.8094 20.4813 30.2875C20.5844 27.9437 20.9781 26.6781 21.3063 25.8344C21.7375 24.7188 22.2625 23.9125 23.0969 23.0781C23.9406 22.2344 24.7375 21.7188 25.8531 21.2875C26.6969 20.9594 27.9719 20.5656 30.3063 20.4625C32.8281 20.35 33.5875 20.3219 40 20.3219ZM40 16C33.4844 16 32.6688 16.0281 30.1094 16.1406C27.5594 16.2531 25.8063 16.6656 24.2875 17.2562C22.7031 17.875 21.3625 18.6906 20.0313 20.0312C18.6906 21.3625 17.875 22.7031 17.2563 24.2781C16.6656 25.8063 16.2531 27.55 16.1406 30.1C16.0281 32.6687 16 33.4844 16 40C16 46.5156 16.0281 47.3312 16.1406 49.8906C16.2531 52.4406 16.6656 54.1938 17.2563 55.7125C17.875 57.2969 18.6906 58.6375 20.0313 59.9688C21.3625 61.3 22.7031 62.125 24.2781 62.7344C25.8063 63.325 27.55 63.7375 30.1 63.85C32.6594 63.9625 33.475 63.9906 39.9906 63.9906C46.5063 63.9906 47.3219 63.9625 49.8813 63.85C52.4313 63.7375 54.1844 63.325 55.7031 62.7344C57.2781 62.125 58.6188 61.3 59.95 59.9688C61.2812 58.6375 62.1063 57.2969 62.7156 55.7219C63.3063 54.1938 63.7188 52.45 63.8313 49.9C63.9438 47.3406 63.9719 46.525 63.9719 40.0094C63.9719 33.4938 63.9438 32.6781 63.8313 30.1188C63.7188 27.5688 63.3063 25.8156 62.7156 24.2969C62.125 22.7031 61.3094 21.3625 59.9688 20.0312C58.6375 18.7 57.2969 17.875 55.7219 17.2656C54.1938 16.675 52.45 16.2625 49.9 16.15C47.3313 16.0281 46.5156 16 40 16Z" fill="white"/>
<path d="M40 27.6719C33.1938 27.6719 27.6719 33.1938 27.6719 40C27.6719 46.8062 33.1938 52.3281 40 52.3281C46.8062 52.3281 52.3281 46.8062 52.3281 40C52.3281 33.1938 46.8062 27.6719 40 27.6719ZM40 47.9969C35.5844 47.9969 32.0031 44.4156 32.0031 40C32.0031 35.5844 35.5844 32.0031 40 32.0031C44.4156 32.0031 47.9969 35.5844 47.9969 40C47.9969 44.4156 44.4156 47.9969 40 47.9969Z" fill="white"/>
<path d="M55.6937 27.1843C55.6937 28.778 54.4 30.0624 52.8156 30.0624C51.2219 30.0624 49.9375 28.7687 49.9375 27.1843C49.9375 25.5905 51.2313 24.3062 52.8156 24.3062C54.4 24.3062 55.6937 25.5999 55.6937 27.1843Z" fill="white"/>
</g>
<circle cx="40" cy="40" r="39" stroke="white" stroke-width="2"/>
<defs>
<clipPath id="clip0_3507_25">
<rect width="48" height="48" fill="white" transform="translate(16 16)"/>
</clipPath>
</defs>
</svg>
