<svg width="80" height="80" viewBox="0 0 80 80" fill="none" xmlns="http://www.w3.org/2000/svg">
<path d="M21.4062 27.8301C20.467 26.9582 20 25.8788 20 24.5946C20 23.3105 20.4695 22.1836 21.4062 21.3092C22.3453 20.4372 23.5542 20 25.0353 20C26.5165 20 27.6779 20.4372 28.6145 21.3092C29.5537 22.1811 30.0207 23.278 30.0207 24.5946C30.0207 25.9113 29.5512 26.9582 28.6145 27.8301C27.6754 28.7021 26.484 29.1393 25.0353 29.1393C23.5867 29.1393 22.3453 28.7021 21.4062 27.8301ZM29.2315 32.832V59.5652H20.7867V32.832H29.2315Z" fill="white"/>
<path d="M57.343 35.4727C59.1838 37.4715 60.103 40.2148 60.103 43.7076V59.0929H52.0829V44.7919C52.0829 43.0305 51.6258 41.6614 50.7142 40.687C49.8025 39.7126 48.5737 39.2229 47.0351 39.2229C45.4965 39.2229 44.2676 39.7101 43.3559 40.687C42.4443 41.6614 41.9872 43.0305 41.9872 44.7919V59.0929H33.9197V32.757H41.9872V36.2498C42.8039 35.0855 43.9055 34.1661 45.2892 33.489C46.6729 32.8119 48.229 32.4746 49.9599 32.4746C53.042 32.4746 55.5047 33.474 57.343 35.4727Z" fill="white"/>
<circle cx="40" cy="40" r="39" stroke="white" stroke-width="2"/>
</svg>
